<?xml version="1.0" encoding="utf-8"?><!-- Uploaded to: SVG Repo, www.svgrepo.com, Generator: SVG Repo Mixer Tools -->
<svg width="800px" height="800px" viewBox="0 0 32 32" fill="none" xmlns="http://www.w3.org/2000/svg">
<path d="M13 9H27V5H13V9ZM27 1V5H13H7V9C7 9 3 9 3 5C3 1 7 1 7 1H27Z" fill="#668077"/>
<path d="M13 9V17L10 15L7 17V9V5H13V9Z" fill="#FFE6EA"/>
<path fill-rule="evenodd" clip-rule="evenodd" d="M29 10V30C29 30 29 31 28 31H4C4 31 3 31 3 30V5C3 9 7 9 7 9V17L10 15L13 17V9H27H28C28 9 29 9 29 10Z" fill="#FFC44D"/>
<path d="M13 9H28C28 9 29 9 29 10V30C29 30 29 31 28 31H4C4 31 3 31 3 30V5M3 5C3 1 7 1 7 1H29M3 5C3 9 7 9 7 9M7 5V17L10 15L13 17V5H27" stroke="#000000" stroke-width="2" stroke-linecap="round" stroke-linejoin="round"/>
</svg>